# xmcd
#
# Track frame offsets:
#	183
#	8430
#	29775
#	39638
#	57000
#	64668
#	72505
#	83235
#	87923
#	98975
#	109503
#	117605
#	125963
#
# Disc length: 1863 seconds
#
# Revision: 1
# Processed by: cddbd v1.5.2PL0 Copyright (c) Steve Scherf et al.
# Submitted via: audiograbber 1.83.01
#
DISCID=b407450d
DTITLE=Blind Willie McTell - Nobody Sings The Blues Like (vol 2)
DYEAR=1900
DGENRE=
TTITLE0=Baby It Must Be Love
TTITLE1=The Dyin' Crapshooter's Blues
TTITLE2=Don't Forget It
TTITLE3=Kill It Kid
TTITLE4=That Will Never Happen No More
TTITLE5=Goodbye Blues
TTITLE6=Salty Dog Blues
TTITLE7=Early Life
TTITLE8=Beedle Um Bum
TTITLE9=A Married Man's A Fool
TTITLE10=A To Z Blues
TTITLE11=Wabash Cannonball
TTITLE12=Pal Of Mine
EXTD=
EXTT0=
EXTT1=
EXTT2=
EXTT3=
EXTT4=
EXTT5=
EXTT6=
EXTT7=
EXTT8=
EXTT9=
EXTT10=
EXTT11=
EXTT12=
PLAYORDER=
